<?xml version="1.0" standalone="no"?>
<!DOCTYPE svg PUBLIC "-//W3C//DTD SVG 20010904//EN"
 "http://www.w3.org/TR/2001/REC-SVG-20010904/DTD/svg10.dtd">
<svg version="1.0" xmlns="http://www.w3.org/2000/svg"
 width="186.000000pt" height="186.000000pt" viewBox="0 0 186.000000 186.000000"
 preserveAspectRatio="xMidYMid meet">
<metadata>
Created by potrace 1.11, written by Peter Selinger 2001-2013
</metadata>
<g transform="translate(0.000000,186.000000) scale(0.100000,-0.100000)"
fill="#000000" stroke="none">
<path d="M728 1687 c-107 -161 -149 -318 -127 -471 4 -28 3 -29 -43 -32 -132
-8 -281 -83 -411 -206 -31 -30 -57 -61 -57 -69 0 -18 108 -133 165 -176 97
-73 207 -116 311 -122 8 -1 9 -12 4 -38 -16 -67 -2 -199 30 -290 26 -77 94
-213 106 -213 2 0 33 14 67 31 142 72 262 175 318 274 l30 53 59 -29 c118 -58
263 -76 444 -55 l68 8 -6 76 c-4 41 -8 78 -10 81 -2 3 -7 22 -10 42 -10 62
-50 162 -90 222 -21 31 -42 59 -47 62 -4 3 20 34 55 68 92 91 166 241 190 383
7 38 5 42 -21 52 -58 24 -171 44 -258 47 -102 4 -191 -12 -270 -49 l-54 -24
-6 21 c-30 100 -126 228 -234 311 -62 47 -142 96 -158 96 -6 0 -26 -24 -45
-53z m187 -433 c41 -175 72 -320 70 -322 -5 -6 -77 58 -115 102 -125 144 -147
316 -63 494 14 29 27 51 30 49 2 -3 38 -148 78 -323z m712 -20 c19 -8 -23 -32
-283 -162 l-305 -153 38 73 c63 120 159 205 278 245 44 14 233 12 272 -3z
m-982 -319 c143 -14 275 -28 294 -31 l35 -6 -50 -31 c-110 -69 -247 -100 -345
-77 -80 19 -179 74 -235 131 l-49 51 45 -6 c25 -3 162 -17 305 -31z m537 -49
c184 -40 310 -157 363 -338 37 -129 51 -139 -449 309 l-48 43 33 0 c19 0 64
-7 101 -14z m-154 -122 c6 -162 -36 -274 -142 -379 -53 -53 -152 -123 -160
-113 -6 6 282 588 291 588 4 0 10 -43 11 -96z"/>
</g>
</svg>
